<mxfile host="app.diagrams.net" agent="Mozilla/5.0 (Windows NT 10.0; Win64; x64) AppleWebKit/537.36 (KHTML, like Gecko) Chrome/135.0.0.0 Safari/537.36 Edg/135.0.0.0" version="26.2.9">
  <diagram name="Page-1" id="0783ab3e-0a74-02c8-0abd-f7b4e66b4bec">
    <mxGraphModel dx="819" dy="476" grid="1" gridSize="10" guides="1" tooltips="1" connect="1" arrows="1" fold="1" page="1" pageScale="1" pageWidth="850" pageHeight="1100" background="none" math="0" shadow="0">
      <root>
        <mxCell id="0" />
        <mxCell id="1" parent="0" />
        <mxCell id="1c1d494c118603dd-1" value="View Supplier Returns" style="swimlane;html=1;childLayout=stackLayout;startSize=20;rounded=0;shadow=0;comic=0;labelBackgroundColor=none;strokeWidth=1;fontFamily=Verdana;fontSize=12;align=center;" parent="1" vertex="1">
          <mxGeometry x="40" y="20" width="750" height="670" as="geometry" />
        </mxCell>
        <mxCell id="1c1d494c118603dd-2" value="Tahir" style="swimlane;html=1;startSize=20;" parent="1c1d494c118603dd-1" vertex="1">
          <mxGeometry y="20" width="250" height="650" as="geometry" />
        </mxCell>
        <mxCell id="0to4seGS5PUNOAOgQLWi-1" value="" style="ellipse;html=1;shape=startState;fillColor=#000000;strokeColor=#ff0000;" vertex="1" parent="1c1d494c118603dd-2">
          <mxGeometry x="110" y="40" width="30" height="30" as="geometry" />
        </mxCell>
        <mxCell id="1c1d494c118603dd-3" value="Tahir&#39;s assistant" style="swimlane;html=1;startSize=20;" parent="1c1d494c118603dd-1" vertex="1">
          <mxGeometry x="250" y="20" width="250" height="650" as="geometry" />
        </mxCell>
        <mxCell id="0to4seGS5PUNOAOgQLWi-5" value="Request return list" style="rounded=1;whiteSpace=wrap;html=1;arcSize=40;fontColor=#000000;fillColor=#ffffc0;strokeColor=#ff0000;" vertex="1" parent="1c1d494c118603dd-3">
          <mxGeometry x="-60" y="140" width="120" height="40" as="geometry" />
        </mxCell>
        <mxCell id="0to4seGS5PUNOAOgQLWi-14" value="" style="ellipse;html=1;shape=startState;fillColor=#000000;strokeColor=#ff0000;" vertex="1" parent="1c1d494c118603dd-3">
          <mxGeometry x="100" y="30" width="30" height="30" as="geometry" />
        </mxCell>
        <mxCell id="0to4seGS5PUNOAOgQLWi-15" value="" style="edgeStyle=orthogonalEdgeStyle;html=1;verticalAlign=bottom;endArrow=open;endSize=8;strokeColor=#ff0000;rounded=0;entryX=0.75;entryY=0;entryDx=0;entryDy=0;" edge="1" source="0to4seGS5PUNOAOgQLWi-14" parent="1c1d494c118603dd-3" target="0to4seGS5PUNOAOgQLWi-5">
          <mxGeometry relative="1" as="geometry">
            <mxPoint x="115" y="120" as="targetPoint" />
          </mxGeometry>
        </mxCell>
        <mxCell id="1c1d494c118603dd-4" value="View Supplier Returns Subsystem" style="swimlane;html=1;startSize=20;" parent="1c1d494c118603dd-1" vertex="1">
          <mxGeometry x="500" y="20" width="250" height="650" as="geometry" />
        </mxCell>
        <mxCell id="0to4seGS5PUNOAOgQLWi-7" value="Retrieve returns" style="rounded=1;whiteSpace=wrap;html=1;arcSize=40;fontColor=#000000;fillColor=#ffffc0;strokeColor=#ff0000;" vertex="1" parent="1c1d494c118603dd-4">
          <mxGeometry x="65" y="140" width="120" height="40" as="geometry" />
        </mxCell>
        <mxCell id="0to4seGS5PUNOAOgQLWi-8" value="" style="edgeStyle=orthogonalEdgeStyle;html=1;verticalAlign=bottom;endArrow=open;endSize=8;strokeColor=#ff0000;rounded=0;" edge="1" source="0to4seGS5PUNOAOgQLWi-7" parent="1c1d494c118603dd-4">
          <mxGeometry relative="1" as="geometry">
            <mxPoint x="125" y="240" as="targetPoint" />
          </mxGeometry>
        </mxCell>
        <mxCell id="0to4seGS5PUNOAOgQLWi-9" value="Available" style="rhombus;whiteSpace=wrap;html=1;fontColor=#000000;fillColor=#ffffc0;strokeColor=#ff0000;" vertex="1" parent="1c1d494c118603dd-4">
          <mxGeometry x="85" y="250" width="80" height="40" as="geometry" />
        </mxCell>
        <mxCell id="0to4seGS5PUNOAOgQLWi-11" value="yes" style="edgeStyle=orthogonalEdgeStyle;html=1;align=left;verticalAlign=top;endArrow=open;endSize=8;strokeColor=#ff0000;rounded=0;entryX=0.5;entryY=0;entryDx=0;entryDy=0;exitX=1;exitY=0.5;exitDx=0;exitDy=0;" edge="1" source="0to4seGS5PUNOAOgQLWi-9" parent="1c1d494c118603dd-4" target="0to4seGS5PUNOAOgQLWi-12">
          <mxGeometry x="-1" relative="1" as="geometry">
            <mxPoint x="105" y="340" as="targetPoint" />
          </mxGeometry>
        </mxCell>
        <mxCell id="0to4seGS5PUNOAOgQLWi-12" value="Display returns" style="rounded=1;whiteSpace=wrap;html=1;arcSize=40;fontColor=#000000;fillColor=#ffffc0;strokeColor=#ff0000;" vertex="1" parent="1c1d494c118603dd-4">
          <mxGeometry x="120" y="360" width="120" height="40" as="geometry" />
        </mxCell>
        <mxCell id="0to4seGS5PUNOAOgQLWi-13" value="" style="edgeStyle=orthogonalEdgeStyle;html=1;verticalAlign=bottom;endArrow=open;endSize=8;strokeColor=#ff0000;rounded=0;entryX=0.5;entryY=0;entryDx=0;entryDy=0;" edge="1" source="0to4seGS5PUNOAOgQLWi-12" parent="1c1d494c118603dd-4" target="0to4seGS5PUNOAOgQLWi-16">
          <mxGeometry relative="1" as="geometry">
            <mxPoint x="180" y="540" as="targetPoint" />
          </mxGeometry>
        </mxCell>
        <mxCell id="0to4seGS5PUNOAOgQLWi-10" value="no" style="edgeStyle=orthogonalEdgeStyle;html=1;align=left;verticalAlign=bottom;endArrow=open;endSize=8;strokeColor=#ff0000;rounded=0;exitX=0;exitY=0.5;exitDx=0;exitDy=0;entryX=0.5;entryY=0;entryDx=0;entryDy=0;" edge="1" source="0to4seGS5PUNOAOgQLWi-9" parent="1c1d494c118603dd-4" target="0to4seGS5PUNOAOgQLWi-17">
          <mxGeometry x="-1" relative="1" as="geometry">
            <mxPoint x="40" y="430" as="targetPoint" />
            <mxPoint x="60" y="259.5" as="sourcePoint" />
          </mxGeometry>
        </mxCell>
        <mxCell id="0to4seGS5PUNOAOgQLWi-16" value="" style="ellipse;html=1;shape=endState;fillColor=#000000;strokeColor=#ff0000;" vertex="1" parent="1c1d494c118603dd-4">
          <mxGeometry x="165" y="590" width="30" height="30" as="geometry" />
        </mxCell>
        <mxCell id="0to4seGS5PUNOAOgQLWi-17" value="Display error message" style="rounded=1;whiteSpace=wrap;html=1;arcSize=40;fontColor=#000000;fillColor=#ffffc0;strokeColor=#ff0000;" vertex="1" parent="1c1d494c118603dd-4">
          <mxGeometry x="10" y="430" width="120" height="40" as="geometry" />
        </mxCell>
        <mxCell id="0to4seGS5PUNOAOgQLWi-18" value="" style="edgeStyle=orthogonalEdgeStyle;html=1;verticalAlign=bottom;endArrow=open;endSize=8;strokeColor=#ff0000;rounded=0;entryX=0;entryY=0.5;entryDx=0;entryDy=0;exitX=0.5;exitY=1;exitDx=0;exitDy=0;" edge="1" source="0to4seGS5PUNOAOgQLWi-17" parent="1c1d494c118603dd-4" target="0to4seGS5PUNOAOgQLWi-16">
          <mxGeometry relative="1" as="geometry">
            <mxPoint x="70" y="620" as="targetPoint" />
          </mxGeometry>
        </mxCell>
        <mxCell id="0to4seGS5PUNOAOgQLWi-6" value="" style="edgeStyle=orthogonalEdgeStyle;html=1;verticalAlign=bottom;endArrow=open;endSize=8;strokeColor=#ff0000;rounded=0;exitX=1;exitY=0.5;exitDx=0;exitDy=0;entryX=0;entryY=0.5;entryDx=0;entryDy=0;" edge="1" source="0to4seGS5PUNOAOgQLWi-5" parent="1c1d494c118603dd-1" target="0to4seGS5PUNOAOgQLWi-7">
          <mxGeometry relative="1" as="geometry">
            <mxPoint x="125" y="260" as="targetPoint" />
          </mxGeometry>
        </mxCell>
        <mxCell id="0to4seGS5PUNOAOgQLWi-2" value="" style="edgeStyle=orthogonalEdgeStyle;html=1;verticalAlign=bottom;endArrow=open;endSize=8;strokeColor=#ff0000;rounded=0;exitX=0.5;exitY=1;exitDx=0;exitDy=0;entryX=0;entryY=0.5;entryDx=0;entryDy=0;" edge="1" source="0to4seGS5PUNOAOgQLWi-1" parent="1c1d494c118603dd-1" target="0to4seGS5PUNOAOgQLWi-5">
          <mxGeometry relative="1" as="geometry">
            <mxPoint x="125" y="190" as="targetPoint" />
          </mxGeometry>
        </mxCell>
      </root>
    </mxGraphModel>
  </diagram>
</mxfile>
